<?xml version="1.0" encoding="utf-8"?>
<COLLADA xmlns="http://www.collada.org/2005/11/COLLADASchema" version="1.4.1" xmlns:xsi="http://www.w3.org/2001/XMLSchema-instance">
  <asset>
    <contributor>
      <author>Blender User</author>
      <authoring_tool>Blender 4.5.3 LTS commit date:2025-09-08, commit time:12:46, hash:67807e1800cc</authoring_tool>
    </contributor>
    <created>2025-10-14T12:50:08</created>
    <modified>2025-10-14T12:50:08</modified>
    <unit name="meter" meter="1"/>
    <up_axis>Z_UP</up_axis>
  </asset>
  <library_images/>
  <library_geometries>
    <geometry id="shape0-mesh" name="shape0">
      <mesh>
        <source id="shape0-mesh-positions">
          <float_array id="shape0-mesh-positions-array" count="975">17.5 0 -0.8050002 12.0433 0 -0.8050001 14.7717 -4.72562 -0.8050001 22.9567 0 -0.8050001 20.2283 4.72562 -0.8050001 14.7717 4.72562 -0.8050001 -32.5 0 -0.8050002 -11.5 0 -0.65 -27.0433 0 -0.8050001 -35.2283 4.72562 -0.8050001 -37.9567 0 -0.8050001 -27.0433 0 -0.1 -29.7717 4.72562 -0.8050001 -35.2283 4.72562 -0.1 -35.2283 -4.72562 -0.8050001 -29.7717 -4.72562 -0.8050001 -29.7717 -4.72562 -0.1 14.7717 4.72562 -0.1 12.0433 0 -0.1 20.2283 -4.72562 -0.8050001 14.7717 -4.72562 -0.1 -8.75 -4.76314 -0.65 -14.25 -4.76314 -0.65 -14.25 4.76314 -0.65 -17 0 -0.65 -8.75 4.76314 -0.65 -14.25 4.76314 -0.1 -8.75 4.76314 -0.1 -6 0 -0.65 -8.75 -4.76314 -0.1 -14.25 -4.76314 -0.1 -17 0 -0.1 -32.5 -7.995 -0.1 -35.2283 -4.72562 -0.1 -39.4239 -3.9975 -0.1 -37.9567 0 -0.1 -32.5 7.995 -0.1 -29.7717 4.72562 -0.1 20.2283 4.72562 -0.1 -6 0 -0.1 32.5 -7.995 -0.1 22.9567 0 -0.1 20.2283 -4.72562 -0.1 39.4239 -3.9975 -0.1 39.4239 3.9975 -0.1 30.5749 3.33442 -0.1 34.4251 3.33442 -0.1 28.6497 0 -0.1 30.5749 -3.33442 -0.1 -39.4239 3.9975 -0.1 -39.4239 3.9975 -0.65 -39.4239 -3.9975 -0.65 -32.5 7.995 -0.65 32.5 7.995 -0.1 39.4239 3.9975 -0.65 39.4239 -3.9975 -0.65 32.5 -7.995 -0.65 34.4251 3.33442 -0.8050001 30.5749 3.33442 -0.8050001 30.5749 -3.33442 -0.8050001 34.4251 -3.33442 -0.8050001 34.4251 -3.33442 -0.1 36.3503 0 -0.1 32.5 0 -0.8050002 28.6497 0 -0.8050001 36.3503 0 -0.8050001 32.5 7.995 -0.65 32.5 7.695 -0.65 -32.5 -7.695 -0.65 -32.5 -7.995 -0.65 -39.1641 3.8475 -0.65 -32.5 -7.695 -0.8050001 -39.1641 -3.8475 -0.65 -39.1641 3.8475 -0.8050001 -32.5 7.695 -0.65 39.1641 3.8475 -0.65 39.1641 -3.8475 -0.65 32.5 -7.695 -0.65 -32.5 7.695 -0.8050001 -39.1641 -3.8475 -0.8050001 32.5 -7.695 -0.8050001 -32.5 -8.105001 -0.8050001 39.1641 -3.8475 -0.8050001 39.5191 4.0525 -0.8050001 32.5 7.695 -0.8050001 39.1641 3.8475 -0.8050001 -32.5 8.105001 -0.8050001 32.5 -8.105001 -0.8050001 -39.5191 4.0525 -0.8050001 -39.5191 -4.0525 -0.8050001 -39.5191 4.0525 0 -32.5 8.105001 0 32.5 8.105001 0 39.5191 -4.0525 -0.8050001 39.5191 4.0525 0 32.5 8.105001 -0.8050001 -39.5191 -4.0525 0 -39.2114 -6.71141 0 -32.5 -9.49136 0 -32.5 -8.105001 0 32.5 -8.105001 0 39.5191 -4.0525 0 39.2114 -6.71141 0 -39.2114 6.71141 0 -39.2755 -6.77548 -0.0304659 -41.9914 0 0 -42.082 0 -0.0304659 -32.5 9.49136 0 -32.5 9.58198 -0.0304659 -32.5001 9.63579 -0.109488 -39.2165 6.90916 -0.109488 -39.2755 6.77548 -0.0304659 -39.3456 -6.78131 -0.109488 32.5 9.49136 0 32.5 9.58245 -0.03082334 39.2758 6.77581 -0.03082334 42.0824 0 -0.03082334 42.1358 -1.08352e-5 -0.109488 39.2758 -6.77581 -0.03082334 39.2114 6.71141 0 41.9914 0 0 32.5 9.63579 -0.109498 32.5 -9.58245 -0.03082334 32.5 -9.49136 0 -32.5 -9.58198 -0.0304659 -32.5001 -9.63579 -0.109488 -40.4512 -7.87657 -6.74999 -42.1354 0.09083509 -0.109488 -40.3013 8.025071 -6.74999 39.249 -6.87745 -0.109488 32.5 -9.63579 -0.1095 40.3391 7.98822 -6.74999 39.249 6.87743 -0.109488 32.5 -12.4506 -20.8454 40.3391 -7.98824 -6.74999 43.6921 -1.25852e-5 -6.74999 44.1208 4.47224 -20.8456 32.5001 -11.1921 -6.74999 -34.3 -12.3203 -20.8455 41.1188 -8.9862 -20.8456 39.5496 10.2635 -20.845 44.6844 -2.56638 -20.8457 -32.5 12.4513 -20.845 -34.3 12.3203 -20.8455 -34.3 12.2794 -17.0348 -35.3881 11.9953 -15.77 -10.9634 10.4317 -24.0036 -35.8 12.0565 -20.6955 -32.4999 10.435 -23.9962 -35.0144 6.53283 -25.05 -35.5052 6.32207 -25.05 -34.2378 6.78086 -25.05 -34.7275 10.2635 -23.9407 -35.3177 9.688711 -24.2484 -35.8 -12.0565 -20.6954 -35.8 -11.9681 -17.12 -35.3881 -11.9953 -15.77 -32.5001 -11.1921 -6.74999 -43.6916 0.105506 -6.74999 -40.4152 -9.46453 -15.77 -35.8 11.9681 -17.12 -40.4153 9.4645 -15.77 -40.4645 9.523281 -17.12 -44.9147 -2.61245e-5 -17.12 -44.8381 -2.59632e-5 -15.77 10.9634 10.4349 -23.9964 32.5 7 -25.0497 -32.8571 -6.9909 -25.05 -35.7999 -9.00732 -24.5406 -34.2378 -6.78088 -25.05 -33.1129 -10.4867 -23.9393 -34.7403 -10.2607 -23.9407 39.1903 -8.00235 -23.998 39.4938 -0.206192 -25.0521 42.9296 -8.2571e-5 -24.0002 37.4717 4.92443 -25.051 39.1903 8.00219 -23.9982 32.4999 10.4351 -23.9962 5.04773e-7 -12.4509 -20.8455 4.81248e-7 -7 -25.05 32.4997 -9.248041 -24.6961 5.26694e-7 -10.453 -23.9817 21.875 -1.08253 -25.05 -21.875 -1.08253 -25.05 32.5002 -7 -25.049 37.5913 -4.80064 -25.0509 23.125 1.08253 -25.05 23.75 0 -25.05 -23.75 0 -25.05 -35.8 6.17333 -25.05 -32.5001 7 -25.05 -24.7584 7 -25.05 -23.125 1.08253 -25.05 -21.875 1.08253 -25.05 0 7 -25.05 8.64209 7 -25.05 16.6371 7 -25.05 23.75 0 -23.4455 23.125 1.08253 -23.4455 21.875 1.08253 -25.05 21.25 0 -25.05 21.875 -1.08253 -23.4455 23.125 -1.08253 -25.05 22.5 0 -23.4455 23.125 -1.08253 -23.4455 21.25 0 -23.4455 21.875 1.08253 -23.4455 -21.25 0 -25.05 -21.875 1.08253 -23.4455 -23.125 1.08253 -23.4455 -23.125 -1.08253 -25.05 -23.75 0 -23.4455 -21.25 0 -23.4455 -21.875 -1.08253 -23.4455 -23.125 -1.08253 -23.4455 -22.5 0 -23.4455 32.5 12.4511 -20.8448 34.3066 -12.3188 -20.8453 10.9634 12.4513 -20.845 -35.8 6.7 -20.95 -35.8 -7.9 -21.6428 -35.8 -8.300001 -20.95 -35.8 3.17 -19.37 -35.8 -7.9 -20.2572 -35.8 -3.17 -19.37 -35.8 -6.17333 -25.05 -35.8 -4.08924 -22.1492 -35.8 -6.7 -20.95 -35.8 -4.47 -20.67 -35.8 -7.1 -20.2572 -35.8 -4.08924 -19.7508 -35.8 8.71457 -24.6694 -35.8 7.9 -20.2572 -35.8 7.1 -20.2572 -35.8 3.17 -22.53 -35.8 4.08924 -22.1492 -35.3 4.08924 -22.1492 -35.8 4.47 -21.23 -35.3 -4.08924 -19.7508 -35.3 -4.47 -21.23 -35.3 -3.17 -19.37 -35.3 3.17 -22.53 -35.3 -3.17 -22.53 -35.3 -4.08924 -22.1492 -35.8 4.47 -20.67 -35.3 4.47 -21.23 -35.3 4.47 -20.67 -35.8 4.08924 -19.7508 -35.3 4.08924 -19.7508 -35.3 3.17 -19.37 -35.3 -4.47 -20.67 -35.8 -4.47 -21.23 -35.8 -3.17 -22.53 -35.3 7.9 -20.2572 -35.8 7.1 -21.6428 -35.3 6.7 -20.95 -35.8 7.9 -21.6428 -35.3 8.300001 -20.95 -35.8 8.300001 -20.95 -35.3 7.1 -20.2572 -35.3 7.5 -20.95 -35.3 7.9 -21.6428 -35.3 7.1 -21.6428 -35.3 -7.1 -20.2572 -35.3 -7.9 -20.2572 -35.3 -8.300001 -20.95 -35.3 -7.9 -21.6428 -35.8 -7.1 -21.6428 -35.3 -7.1 -21.6428 -35.3 -6.7 -20.95 -35.3 -7.5 -20.95 -38.6494 4.8 -17.12 -40.4644 -9.523321 -17.12 -38.75 -5.17528 -17.12 -38.75 5.17528 -17.12 -39.0247 5.45 -17.12 -40.1506 -4.8 -17.12 -40.1506 4.8 -17.12 -39.7753 -4.15 -17.12 -39.0247 -4.15 -17.12 -39.4 4.04944 -17.12 -39.6842 4.21352 -17.0212 -39.7753 4.15 -17.12 -40.05 4.42472 -17.12 -39.7658 5.33935 -17.0212 -39.7753 5.45 -17.12 -40.05 4.8 -17.0194 -40.05 5.17528 -17.12 -40.05 5.17528 -16.28 -40.05 4.42472 -16.28 -39.0342 4.26065 -17.0212 -39.0247 4.15 -17.12 -39.4 4.04944 -16.28 -38.75 4.42472 -16.28 -38.75 4.42472 -17.12 -39.4 5.55056 -16.28 -38.75 4.8 -17.0194 -39.1158 5.38648 -17.0212 -38.75 5.17528 -16.28 -39.4 5.55056 -17.12 -39.7753 -5.45 -17.12 -40.05 -4.8 -17.0194 -40.05 -5.17528 -17.12 -39.6842 -5.38648 -17.0212 -40.05 -5.17528 -16.28 -39.4 -5.55056 -17.12 -39.0247 -5.45 -17.12 -39.4 -5.55056 -16.28 -39.0342 -5.33935 -17.0212 -38.6494 -4.8 -17.12 -38.75 -4.8 -17.0194 -40.05 -4.42472 -16.28 -38.75 -5.17528 -16.28 -38.75 -4.42472 -16.28 -38.75 -4.42472 -17.12 -39.4 -4.04944 -17.12 -39.1158 -4.21352 -17.0212 -39.4 -4.04944 -16.28 -39.7658 -4.26065 -17.0212 -40.05 -4.42472 -17.12 10.9634 11.1921 -6.75 32.5001 11.1921 -6.75 -10.9634 11.1921 -6.75 -10.9634 12.4513 -20.845 -32.5 11.1921 -6.75</float_array>
          <technique_common>
            <accessor source="#shape0-mesh-positions-array" count="325" stride="3">
              <param name="X" type="float"/>
              <param name="Y" type="float"/>
              <param name="Z" type="float"/>
            </accessor>
          </technique_common>
        </source>
        <source id="shape0-mesh-normals">
          <float_array id="shape0-mesh-normals-array" count="1485">0 0 1 0 0 1 0 0 1 0 0 1 0 0 1 0 0 1 0 0 1 0 0 1 0 0 1 0 0 1 0 0 1 0 0 1 0 0 1 0 0 1 0 0 1 0 0 1 0 0 1 0 0 1 -0.8660205 -0.5000087 0 -0.8660204 -0.5000087 0 0 -1 0 0.8660205 -0.5000087 0 0.8660204 -0.5000087 0 0.8660205 0.5000087 0 0.8660204 0.5000087 0 0 1 0 -0.8660205 0.5000087 0 -0.8660204 0.5000087 0 -0.8660203 -0.5000091 0 -0.8660206 -0.5000083 0 0.8660206 -0.5000083 0 0.8660207 0.5000083 0 -0.8660207 0.5000083 0 -0.8660202 0.5000091 0 0.8660253 -0.5000002 0 0.8660254 -0.5 0 -0.8660255 -0.5 0 -0.8660254 -0.5 0 -0.8660255 0.5 0 -0.8660254 0.5 0 0.8660255 0.5 0 0.8660253 0.5000002 0 0 0 1 0 0 1 0 0 1 0 0 1 0 0 1 0 0 1 0 0 1 -0.4999983 -0.8660265 0 -0.4999986 -0.8660262 0 -1 0 0 -0.4999987 0.8660262 0 -0.4999983 0.8660265 0 0.4999983 0.8660265 0 0.4999986 0.8660262 0 1 0 0 0.4999987 -0.8660262 0 0.4999983 -0.8660265 0 -0.8660175 -0.5000138 0 -0.8660168 -0.5000148 0 0.8660175 -0.5000138 0 0.8660175 0.5000138 0 -0.8660168 0.5000148 0 -0.8660175 0.5000138 0 0 0 1 0 0 1 0 0 1 0 0 1 0 0 1 0 0 1 0 0 -1 1.78882e-7 0 -1 0 0 -1 -2.68334e-7 0 -1 2.00873e-7 0 -1 0 0 -1 1.72171e-7 0 -1 -1.78882e-7 0 -1 0 0 -1 2.68334e-7 0 -1 -2.00873e-7 0 -1 0 0 -1 -1.72171e-7 0 -1 -0.4999979 -0.8660266 0 -0.4999978 -0.8660266 0 -0.4999976 0.8660268 0 -0.4999982 0.8660265 0 0.4999979 0.8660266 0 0.4999978 0.8660266 0 0.4999976 -0.8660268 0 0.4999982 -0.8660265 0 0 0 1 0 0 1 -2.07285e-7 0 1 1.34652e-7 0 1 0 0 1 0 0 1 0 0 1 0 0 1 2.07285e-7 0 1 -1.34652e-7 0 1 0 0 1 0 0 1 0.5000018 -0.8660244 0 0.5000023 -0.8660242 0 0.5000023 0.8660242 0 0.5000018 0.8660244 0 -0.5000018 0.8660244 0 -0.5000023 0.8660242 0 -0.5000023 -0.8660242 0 -0.5000018 -0.8660244 0 -0.13086 -0.3159242 0.9397168 -0.1308619 -0.3159289 0.9397149 -0.315873 -0.1308411 0.9397367 -0.3159802 -0.1308836 0.9396947 -0.3159789 0.130885 0.9396949 -0.3158754 0.1308401 0.939736 -0.13086 0.3159242 0.9397168 -0.1308619 0.3159289 0.9397149 -0.3238425 0.7818253 0.5327994 -0.2308371 0.568612 0.7895534 -0.9230768 0.3823506 -0.04168307 -0.9230501 0.3823413 -0.04235363 -0.6265816 0.2682372 0.7317407 -0.90856 -0.3763393 0.1813492 -0.7060777 -0.2866374 0.6475287 -0.3543708 -0.8555279 0.3774831 -0.3257815 -0.7812757 0.5324236 0 0.8276979 0.561174 -2.88309e-6 0.8265686 0.5628361 2.90834e-6 0.3186751 0.9478641 0 0.320522 0.9472411 0.131614 0.3177447 0.9389975 0.3243141 0.7829604 0.5308423 0.2587211 0.6330261 0.7296173 0.9093291 0.3766525 0.176787 0.7815946 0.3280736 0.5305446 0.7818303 0.3281691 0.5301382 0.7826626 -0.3241854 0.5313597 0.9065228 -0.380513 0.1828287 0.2621661 -0.6329218 0.7284772 0.3204472 -0.7840598 0.5315675 0.1316332 0.3177893 0.9389796 0.317787 0.1316334 0.9389804 0.3180202 0.1317268 0.9388883 0.3180197 -0.1317301 0.938888 0.3177897 -0.131631 0.9389798 0.1316328 -0.3177901 0.9389795 0.1316145 -0.3177443 0.9389975 0 0.9736182 0.2281832 0 0.9736183 0.228183 0 0.9736182 0.2281833 0 0.9736182 0.2281832 0 -0.826569 0.5628355 -2.90056e-6 -0.8277041 0.5611648 2.89138e-6 -0.3205339 0.9472371 0 -0.3186632 0.9478681 0 -0.9736182 0.2281835 0 -0.9736182 0.2281836 -0.3761665 -0.902108 0.2114236 -0.3761699 -0.9021074 0.2114199 -0.9056174 -0.3676416 0.2114167 -0.905616 -0.3676435 0.2114189 -0.898523 0.3846539 0.2114187 -0.8985234 0.3846507 0.2114229 -0.3675844 0.9054556 0.2122073 -0.3675811 0.9054579 0.2122033 0.3697279 -0.9046263 0.2120198 0.3697243 -0.9046289 0.2120152 0.9012615 -0.3782983 0.2112301 0.9012612 -0.3783025 0.2112241 0.9012631 0.3782977 0.2112244 0.9012594 0.3783028 0.2112306 0.3697298 0.9046266 0.2120158 0.3697267 0.9046269 0.2120198 0.3768947 -0.9221616 0.08699792 0.3768867 -0.9221423 0.08723664 0.3768944 -0.9221616 0.08699786 0.1945195 0.9765521 0.09224063 0.1945282 0.9765328 0.09242504 0.1945284 0.9765325 0.0924288 0.3738384 0.9147455 0.1532505 0.373861 0.9147362 0.1532505 0.3738632 0.9147353 0.1532505 0.9108449 0.3823359 0.1555019 0.9107679 0.3822878 0.1560702 0.9107679 0.3822877 0.1560702 0.5495246 0.8303566 0.0923627 0.5495026 0.8304436 0.09170955 0.549524 0.8303588 0.09234517 0.06506705 -0.9618965 0.2655588 0.0701366 -0.9615805 0.2654126 0.06519776 -0.9617455 0.2660733 0.8239774 -0.5590167 0.09252977 0.8239775 -0.559018 0.09252005 0.8239774 -0.559017 0.09252738 0.9107859 -0.3822471 0.1560654 0.9107689 -0.3822875 0.1560655 0.9107678 -0.3822903 0.1560655 0.9766566 0.1942068 0.09179162 0.976665 0.1942951 0.09151607 0.9766571 0.1942127 0.09177321 2.7136e-4 0.2924571 -0.9562786 0 0.2916641 -0.9565209 0 0.2932918 -0.956023 -6.67147e-4 0.2919173 -0.9564434 -6.46978e-4 0.2919589 -0.9564307 -2.83712e-4 0.2927075 -0.9562021 -0.01432228 0.8443319 -0.5356293 5.4015e-5 0.8425016 -0.5386938 -0.01553171 0.843855 -0.5363465 -0.07452189 0.1477043 -0.9862201 -0.4245916 0.7257493 -0.5413039 -0.06103992 0.8407558 -0.5379626 -0.1980879 0.8287643 -0.5233651 -0.07786756 0.8352732 -0.5442935 -0.04634743 0.2929783 -0.9549952 -0.06402021 0.1490842 -0.9867499 -0.03763967 0.2984749 -0.953675 -0.09272646 0.2903296 -0.9524236 0.2346363 0.2604358 -0.9365465 0.2785074 0.2615027 -0.9241483 -0.7013801 0.5455247 -0.4587689 -0.2043178 -0.9786056 0.02419787 -0.2043178 -0.9786055 0.02419775 -0.2043178 -0.9786055 0.02419996 -0.1148986 -0.972358 0.203269 -0.006361067 -0.9987697 0.04918104 -0.1686207 -0.9842574 0.0529583 -0.460717 -0.8790023 0.1228607 -0.2053446 -0.9777467 0.0429545 -0.205345 -0.9777466 0.04295301 -0.2053458 -0.9777466 0.04295033 -0.1129053 -0.9858447 0.1239462 -0.1129079 -0.9858455 0.1239381 -0.1129037 -0.9858443 0.1239511 -0.3797782 -0.9107603 0.1621242 -0.3797779 -0.9107604 0.1621242 -0.3798002 -0.9107849 0.161935 -0.9247547 -0.3754132 0.06240022 -0.8993138 -0.4202554 0.1209148 -0.8993035 -0.4202498 0.12101 -0.8992827 -0.4202395 0.1212003 -0.9133842 0.3910126 0.1133069 -0.9133844 0.3910124 0.1133069 -0.9033125 0.4216011 0.07924145 -0.9031475 0.4220438 0.07876479 -0.9032889 0.4216644 0.07917344 0.106136 0.9906122 0.08615559 0.106135 0.9906128 0.08614909 0.1061303 0.9906157 0.08612155 0.05149549 0.9942299 0.09410113 0.05149507 0.9942289 0.09411245 0.05149567 0.9942303 0.09409755 -0.446496 0.886923 0.1183604 -0.4878814 0.860538 0.1464447 -0.4879004 0.8605777 0.146148 -0.4879 0.8605769 0.1461533 -0.3672436 0.904628 0.216288 -0.3672443 0.9046277 0.216288 -0.367213 0.9046403 0.2162879 -0.1132158 0.9857983 0.1240326 -0.2053548 0.9777445 0.04295653 -0.2044579 0.9785775 0.02414596 -0.2044582 0.9785774 0.02414596 -0.2044936 0.9785701 0.02414393 -0.2043198 0.9786052 0.0241962 -0.2043198 0.9786052 0.02419489 -0.2043198 0.9786052 0.02419614 -0.4635183 0.8843539 0.0553987 -0.9047675 0.4227948 0.05138391 -0.9047681 0.4227995 0.05133658 -0.9047659 -0.4228042 0.05133664 -0.9047609 -0.4228089 0.0513848 -0.4489741 -0.8918383 0.05519968 0 0.2932488 -0.9560363 1.30338e-5 0.8423802 -0.5388838 0.1037704 0.8345528 -0.5410668 1.79371e-5 0.2932078 -0.9560488 -0.04703724 -0.2995407 -0.9529234 -0.0470851 -0.2995396 -0.9529213 -0.0470851 -0.2995399 -0.9529213 -0.057298 -0.2957049 -0.9535595 -0.05729788 -0.2957043 -0.9535596 -0.05729848 -0.2957088 -0.9535582 0.1510472 -0.3199694 -0.9353098 -0.06864041 -0.1764957 -0.9819052 0.004844307 -0.9959613 0.08965331 8.93417e-6 -0.9960379 0.0889306 -0.1978847 -0.8170198 -0.5415906 -0.1978836 -0.81702 -0.5415906 -0.1978833 -0.8170201 -0.5415907 -0.1352975 -0.847552 -0.5131766 -0.1352973 -0.8475517 -0.5131772 -0.1352978 -0.8475525 -0.5131756 -0.4884293 -0.6766389 -0.5509961 -0.4884293 -0.6766388 -0.5509961 -0.4884288 -0.6766394 -0.5509959 0.0560379 -0.7676364 -0.6384311 0.1308231 -0.1537781 -0.9794068 0.3229717 -0.6602516 -0.6780539 0.2080277 -0.890284 -0.405116 0.7468948 -0.3491656 -0.5658901 0.655849 -0.3642721 -0.6611868 0.8391283 0.3922024 -0.3768833 0.5087298 0.4016325 -0.761502 0.895277 0.07169425 -0.4397032 0.1212564 0.2910478 -0.9489933 0.1117944 -0.2596119 -0.9592204 0.3351848 -0.1390393 -0.9318365 0.2975239 -0.1392857 -0.9444994 0.2847177 0.1124179 -0.9519969 0.3127606 0.1463811 -0.9384847 0.09872603 0.2722789 -0.9571403 0.2781152 0.765283 -0.5805118 0.2528907 0.8149948 -0.5213732 9.019e-6 -0.7688452 -0.6394351 0.01945579 -0.8432415 -0.5371827 -0.01004093 -0.2955462 -0.9552758 3.04324e-5 -0.1550826 -0.9879016 -8.1715e-5 -0.2955611 -0.9553239 -3.59763e-6 -0.2955719 -0.9553205 -2.17516e-6 -0.2955721 -0.9553205 -2.65852e-6 -0.2955721 -0.9553205 -5.00742e-4 -0.8434012 -0.5372841 -1.65174e-4 -0.8434014 -0.5372839 -1.65174e-4 -0.8434014 -0.5372839 -2.21872e-6 -0.8434209 -0.5372533 4.10201e-6 -0.8434213 -0.5372527 3.5048e-6 -0.8434213 -0.5372528 -0.02589827 -0.9971053 0.0714873 0 -0.996036 0.08895105 -0.05755537 -0.995997 -0.06839233 1.84675e-6 0 -1 -3.16442e-6 0 -1 3.07843e-5 -1.13464e-4 -1 0 -1.68576e-4 -1 -1.78009e-4 -4.50696e-4 -1 -5.43017e-5 3.12869e-5 -1 -1.35958e-4 -2.04781e-4 -1 1.88564e-5 2.06974e-5 -1 2.20389e-5 1.35161e-5 -1 -1.59897e-4 2.43016e-4 -1 -1.31293e-4 1.62401e-4 -1 -2.50813e-6 0 -1 -1.70897e-7 0 -1 1.45464e-6 0 -1 -0.8660245 -0.5000017 0 -0.8660262 -0.4999988 0 0.8660229 -0.5000045 0 0.8660245 -0.5000017 0 0.8660245 0.5000017 0 0.8660229 0.5000045 0 -0.8660262 0.4999988 0 -0.8660245 0.5000017 0 0 0 -1 0 0 -1 -0.8660229 -0.5000045 0 0.8660262 -0.4999988 0 0.8660262 0.4999988 0 -0.8660229 0.5000045 0 -0.04549169 0.9989542 -0.004591047 0 0.9960343 0.08896964 -0.02604633 0.9816881 0.1887063 0.4552675 -0.8868839 0.07854115 0.4377587 -0.8948181 0.08756721 0.4562197 -0.8861079 0.08171045 -0.4388322 -0.8716925 0.2181249 0.08565205 0.9804421 0.1771925 0 0.9960332 0.08898228 0.005518913 0.9993796 -0.03478658 0 0.9960333 0.08898228 -1 -1.33106e-6 0 -1 -3.82495e-5 -1.95131e-5 -1 -3.96071e-5 -2.05956e-5 -1 -2.816e-6 0 -1 -9.76827e-7 -2.72588e-5 -1 -1.41058e-6 0 -1 4.58272e-7 0 -1 2.20493e-6 0 -1 -1.52734e-6 0 -1 1.15112e-6 0 -1 -2.20493e-6 0 -1 -7.6273e-7 0 -1 7.08847e-7 0 -1 1.29505e-6 0 0 -0.3827147 0.9238666 0 -0.3827182 0.9238653 0 -0.9238727 0.3827002 0 -0.9238753 0.3826939 -1 1.96986e-6 0 -1 -1.96986e-6 0 0 -0.9238753 -0.3826939 0 -0.9238727 -0.3827002 0 -0.3827149 -0.9238666 0 -0.382718 -0.9238653 0 0.3827147 -0.9238666 0 0.3827182 -0.9238653 0 0.9238749 -0.3826947 0 0.9238731 -0.3826994 0 0.9238731 0.3826994 0 0.9238749 0.3826947 0 0.3827149 0.9238666 0 0.382718 0.9238653 0 -0.8660201 -0.5000094 0 -0.8660171 -0.5000144 0 0.8660201 -0.5000094 0 0.8660176 -0.5000135 0 0.8660176 0.5000135 0 0.8660201 0.5000094 0 -0.8660171 0.5000144 0 -0.8660201 0.5000094 0 -0.8660176 -0.5000135 0 0.8660196 -0.5000103 0 0.8660196 0.5000103 0 -0.8660176 0.5000135 2.67558e-6 0 -1 -8.52237e-6 0 -1 -2.23723e-7 0 -1 -2.21446e-5 0 -1 -6.39178e-6 0 -1 -1.10258e-5 0 -1 6.71969e-6 0 -1 2.57344e-5 0 -1 1.16927e-5 0 -1 -1.30994e-6 0 -1 6.86313e-6 0 -1 -1.33848e-5 0 -1 2.76232e-5 0 -1 -2.51988e-6 0 -1 -1.41193e-6 0 -1 0.4741139 0.4740639 -0.741943 0.1962649 0.73248 -0.6518843 0.6947312 -0.186235 -0.6947411 0.6947402 0.1862328 -0.6947326 0.1735251 -0.6475962 -0.7419624 0.5361754 -0.5361189 -0.6519911 0.5000056 0.8660222 0 0.5000008 0.8660251 -2.99996e-6 0.5000032 0.8660237 0 -0.1735202 0.6476016 -0.7419589 -0.5361784 0.536136 -0.6519748 -0.5000227 0.8660123 0 -0.4999977 0.8660267 1.49997e-5 -0.4999774 0.8660386 0 -0.6947402 0.1862328 -0.6947326 -0.6947312 -0.186235 -0.6947411 -1 -9.07586e-6 0 -0.5000056 -0.8660222 0 -0.5000038 -0.8660234 -6.42852e-6 -0.4999859 -0.8660336 0 0.500033 -0.8660064 0 0.5000067 -0.8660215 1.62857e-5 0.4999641 -0.8660462 0 -0.4741101 -0.4740768 -0.7419372 -0.1962668 -0.7324685 -0.6518967 0.1963265 0.7326893 -0.6516305 0.1963265 0.7326893 -0.6516305 0.1963529 0.7327792 -0.6515215 0.6947402 -0.1862328 -0.6947326 0.6947312 0.186235 -0.6947411 0.1735221 -0.6476007 -0.7419592 0.5361837 -0.5361225 -0.6519814 0.5000008 0.8660251 -5.14279e-6 -0.1735231 0.6475971 -0.7419621 -0.5363656 0.5363776 -0.6516219 -0.5363655 0.5363777 -0.651622 -0.5363069 0.5363041 -0.6517308 -0.5000237 0.8660117 0 -0.4999977 0.8660267 1.54283e-5 -0.499976 0.8660393 0 -0.6947312 0.186235 -0.6947411 -0.6947402 -0.1862328 -0.6947326 -0.5000038 -0.8660234 -4.71425e-6 0.500032 -0.866007 0 0.4999653 -0.8660454 0 -0.1963427 -0.7327722 -0.6515324 -0.1963428 -0.7327722 -0.6515324 -0.19632 -0.7326812 -0.6516415 0.009545147 0.8483403 -0.5293653 -0.001016438 0.8336347 -0.5523152 0.002648234 0.8500134 -0.5267546 0 0.2932489 -0.9560362 6.31026e-6 0.2932581 -0.9560334 -0.01132494 0.8370935 -0.5469426 0 0.8423317 -0.5389596 -2.93533e-6 0.8423316 -0.5389598 0.02665674 0.9995778 -0.01156109 8.43629e-6 0.9960333 0.08898204 0.009460985 0.9774088 0.2111461 0 0.9960333 0.08898216 0.001015126 0.8503678 -0.5261877 -0.002768278 0.8340008 -0.5517563 -0.01021265 0.8357601 -0.5489999</float_array>
          <technique_common>
            <accessor source="#shape0-mesh-normals-array" count="495" stride="3">
              <param name="X" type="float"/>
              <param name="Y" type="float"/>
              <param name="Z" type="float"/>
            </accessor>
          </technique_common>
        </source>
        <vertices id="shape0-mesh-vertices">
          <input semantic="POSITION" source="#shape0-mesh-positions"/>
        </vertices>
        <lines count="1">
          <input semantic="VERTEX" source="#shape0-mesh-vertices" offset="0"/>
          <p>139 133</p>
        </lines>
        <triangles count="646">
          <input semantic="VERTEX" source="#shape0-mesh-vertices" offset="0"/>
          <input semantic="NORMAL" source="#shape0-mesh-normals" offset="1"/>
          <p>5 0 1 0 0 0 1 1 2 1 0 1 2 2 19 2 0 2 19 3 3 3 0 3 3 4 4 4 0 4 4 5 5 5 0 5 25 6 23 6 7 6 10 7 14 7 6 7 22 8 21 8 7 8 14 9 15 9 6 9 23 10 24 10 7 10 15 11 8 11 6 11 21 12 28 12 7 12 8 13 12 13 6 13 28 14 25 14 7 14 12 15 9 15 6 15 24 16 22 16 7 16 9 17 10 17 6 17 12 18 8 18 11 18 11 19 37 19 12 19 9 20 12 20 37 20 37 20 13 20 9 20 10 21 9 21 13 21 13 22 35 22 10 22 14 23 10 23 35 23 35 24 33 24 14 24 15 25 14 25 33 25 33 25 16 25 15 25 8 26 15 26 16 26 16 27 11 27 8 27 4 28 3 28 41 28 41 29 38 29 4 29 5 20 4 20 38 20 38 20 17 20 5 20 1 21 5 21 17 21 17 30 18 30 1 30 2 31 1 31 18 31 18 24 20 24 2 24 19 25 2 25 20 25 20 25 42 25 19 25 3 32 19 32 42 32 42 33 41 33 3 33 26 34 31 34 24 34 24 35 23 35 26 35 27 20 26 20 23 20 23 20 25 20 27 20 39 36 27 36 25 36 25 37 28 37 39 37 29 38 39 38 28 38 28 39 21 39 29 39 30 25 29 25 21 25 21 25 22 25 30 25 31 40 30 40 22 40 22 41 24 41 31 41 40 42 42 42 20 42 31 42 26 42 37 42 37 43 11 43 31 43 11 42 30 42 31 42 32 42 40 42 16 42 16 42 33 42 32 42 33 42 34 42 32 42 34 42 33 42 35 42 35 42 49 42 34 42 49 42 35 42 13 42 13 42 36 42 49 42 36 42 13 42 37 42 37 42 53 42 36 42 53 42 37 42 26 42 26 42 27 42 53 42 17 42 38 42 53 42 53 42 27 42 17 42 18 42 17 42 27 42 27 44 39 44 18 44 39 42 20 42 18 42 20 42 39 42 29 42 20 42 29 42 40 42 40 42 29 42 30 42 30 42 16 42 40 42 30 42 11 42 16 42 48 42 41 42 42 42 42 45 40 45 48 45 40 42 61 42 48 42 61 46 40 46 43 46 62 47 61 47 43 47 43 42 44 42 62 42 46 42 62 42 44 42 44 46 53 46 46 46 45 42 46 42 53 42 53 45 38 45 45 45 47 42 45 42 38 42 38 48 41 48 47 48 41 42 48 42 47 42 69 20 56 20 40 20 40 20 32 20 69 20 69 49 32 49 34 49 34 50 51 50 69 50 51 51 34 51 49 51 49 51 50 51 51 51 50 52 49 52 36 52 36 53 52 53 50 53 66 25 52 25 36 25 36 25 53 25 66 25 66 54 53 54 44 54 44 55 54 55 66 55 54 56 44 56 43 56 43 56 55 56 54 56 55 57 43 57 40 57 40 58 56 58 55 58 57 59 65 59 62 59 62 60 46 60 57 60 58 20 57 20 46 20 46 20 45 20 58 20 64 61 58 61 45 61 45 61 47 61 64 61 59 62 64 62 47 62 47 62 48 62 59 62 60 25 59 25 48 25 48 25 61 25 60 25 65 63 60 63 61 63 61 64 62 64 65 64 64 65 59 65 63 65 59 66 60 66 63 66 60 67 65 67 63 67 65 68 57 68 63 68 57 69 58 69 63 69 58 70 64 70 63 70 67 71 74 71 52 71 52 71 66 71 67 71 75 72 67 72 66 72 66 73 54 73 75 73 76 74 75 74 54 74 54 75 55 75 76 75 77 76 76 76 55 76 55 77 56 77 77 77 68 71 77 71 56 71 56 71 69 71 68 71 72 78 68 78 69 78 69 79 51 79 72 79 70 80 72 80 51 80 51 81 50 81 70 81 74 82 70 82 50 82 50 83 52 83 74 83 71 20 80 20 77 20 77 20 68 20 71 20 71 84 68 84 72 84 72 85 79 85 71 85 79 51 72 51 70 51 70 51 73 51 79 51 73 86 70 86 74 86 74 87 78 87 73 87 84 25 78 25 74 25 74 25 67 25 84 25 84 88 67 88 75 88 75 89 85 89 84 89 85 56 75 56 76 56 76 56 82 56 85 56 82 90 76 90 77 90 77 91 80 91 82 91 73 92 78 92 86 92 86 93 88 93 73 93 79 94 73 94 88 94 88 95 89 95 79 95 71 96 79 96 89 96 89 97 81 97 71 97 80 42 71 42 81 42 81 42 87 42 80 42 82 98 80 98 87 98 87 99 93 99 82 99 85 100 82 100 93 100 93 101 83 101 85 101 84 102 85 102 83 102 83 103 95 103 84 103 78 42 84 42 95 42 95 42 86 42 78 42 99 25 100 25 87 25 87 25 81 25 99 25 88 104 86 104 91 104 91 105 90 105 88 105 89 56 88 56 90 56 90 56 96 56 89 56 81 106 89 106 96 106 96 107 99 107 81 107 92 20 91 20 86 20 86 20 95 20 92 20 93 108 87 108 100 108 100 109 101 109 93 109 83 51 93 51 101 51 101 51 94 51 83 51 95 110 83 110 94 110 94 111 92 111 95 111 96 42 90 42 105 42 105 42 97 42 96 42 99 42 96 42 97 42 97 42 98 42 99 42 100 42 99 42 98 42 98 42 123 42 100 42 101 42 100 42 123 42 123 42 102 42 101 42 101 42 102 42 120 42 94 42 101 42 120 42 120 42 119 42 94 42 92 42 94 42 119 42 119 42 113 42 92 42 91 42 92 42 113 42 113 42 107 42 91 42 90 42 91 42 107 42 107 42 103 42 90 42 90 42 103 42 105 42 124 112 98 112 97 112 97 113 104 113 124 113 104 114 97 114 105 114 105 115 106 115 104 115 106 116 105 116 103 116 103 117 111 117 106 117 111 118 103 118 107 118 107 119 108 119 111 119 111 120 108 120 109 120 109 121 110 121 111 121 106 122 111 123 110 123 110 124 127 124 106 124 104 125 106 125 127 125 127 126 112 126 104 126 124 127 104 127 112 127 112 128 125 128 124 128 114 129 121 129 109 129 109 130 108 130 114 130 114 131 108 131 107 131 107 132 113 132 114 132 114 133 113 133 119 133 121 134 114 134 115 134 115 135 132 135 121 135 132 136 115 136 116 136 116 137 117 137 132 138 117 139 116 139 118 139 118 140 129 140 117 140 129 141 118 141 122 141 122 142 130 142 129 142 119 143 115 143 114 143 115 144 119 144 120 144 120 145 116 145 115 145 116 146 120 146 102 146 102 147 118 147 116 147 118 148 102 148 123 148 123 149 122 149 118 149 121 150 321 150 320 150 121 151 320 151 322 151 322 152 109 152 121 152 322 153 324 153 109 153 124 154 125 154 130 154 130 155 122 155 124 155 124 156 122 156 123 156 123 157 98 157 124 157 125 158 157 158 137 158 137 159 130 159 125 159 157 160 125 160 112 160 112 161 126 161 157 161 126 162 112 162 127 162 127 163 158 163 126 163 158 164 127 164 110 164 110 165 128 165 158 165 128 166 110 166 109 166 109 167 324 167 128 167 130 168 137 168 134 168 134 169 129 169 130 169 129 170 134 170 135 170 135 171 117 171 129 171 117 172 135 172 131 172 131 173 132 173 117 173 132 174 131 174 321 174 321 175 121 175 132 175 134 176 137 177 133 178 140 179 216 180 321 181 140 182 321 183 131 184 136 185 131 186 135 187 131 188 136 189 140 190 133 191 217 192 134 193 134 194 139 195 141 196 141 197 135 198 134 199 135 200 141 201 136 202 194 203 146 203 165 203 191 204 146 204 194 204 191 205 190 205 148 205 148 206 146 207 191 208 323 209 165 210 146 211 231 212 150 212 189 212 147 213 152 213 153 213 143 214 142 214 148 214 143 215 152 215 147 215 148 216 152 216 143 216 152 217 148 217 190 217 149 218 150 218 231 218 190 219 151 219 152 219 152 220 151 220 149 220 149 221 153 221 152 221 231 222 153 222 149 222 147 223 153 223 231 223 155 224 154 225 138 226 138 227 178 228 157 229 272 230 155 230 156 230 138 231 156 232 155 233 156 234 138 235 157 236 157 237 126 238 159 239 159 240 126 240 158 240 158 241 164 242 159 243 164 244 158 244 128 245 128 246 161 247 164 248 143 249 144 250 324 251 324 252 142 253 143 254 161 255 145 255 160 255 145 256 161 257 128 258 128 259 324 260 145 261 324 262 144 262 145 262 160 263 145 263 144 263 160 264 144 265 143 266 143 267 147 268 160 269 160 270 162 270 161 270 161 271 162 271 163 271 163 272 164 272 161 272 164 273 163 273 272 273 272 274 159 274 164 274 156 275 159 275 272 275 165 276 195 276 194 276 177 277 218 277 216 278 177 279 166 279 196 279 167 280 170 281 171 282 171 283 169 284 167 285 169 286 171 286 168 286 168 287 225 287 169 287 137 288 178 289 133 289 170 290 138 291 154 292 154 293 171 294 170 295 154 296 168 297 171 298 217 299 133 299 180 299 172 300 180 300 184 300 139 301 217 301 180 301 180 302 172 302 139 302 139 303 172 303 174 303 174 304 141 304 139 304 174 305 176 305 140 305 140 306 136 306 174 306 136 307 141 307 174 307 175 308 166 308 177 308 184 309 185 309 172 309 172 310 185 310 173 310 173 311 174 311 172 311 174 312 173 312 175 312 175 313 176 313 174 313 177 314 176 314 175 314 140 315 176 315 177 315 177 316 216 316 140 316 180 317 133 317 178 317 178 318 181 318 180 318 180 319 181 319 179 319 179 320 184 320 180 320 167 321 179 321 181 321 181 322 170 323 167 324 170 325 181 326 178 327 178 328 138 329 170 330 178 331 137 332 157 333 189 334 167 334 169 334 169 335 225 335 189 335 183 71 200 71 182 71 188 71 210 71 167 71 167 71 210 71 183 71 179 71 167 71 183 71 182 71 179 71 183 71 184 336 179 336 182 336 182 337 202 337 184 337 185 338 184 338 202 338 202 339 187 339 185 339 187 340 173 340 185 340 186 71 199 71 196 71 196 341 166 341 186 341 187 342 186 342 166 342 166 343 175 343 187 343 175 344 173 344 187 344 189 71 188 71 167 71 188 345 189 345 150 345 188 346 150 346 149 346 199 71 200 71 183 71 183 71 207 71 199 71 199 71 207 71 193 71 188 347 149 347 151 347 151 71 190 71 188 71 192 71 188 71 190 71 190 71 191 71 192 71 193 71 192 71 191 71 191 71 194 71 193 71 193 71 194 71 199 71 194 71 195 71 199 71 195 71 196 71 199 71 186 348 187 348 197 348 197 349 198 349 186 349 199 20 186 20 198 20 198 20 206 20 199 20 200 350 199 350 206 350 206 351 205 351 200 351 182 352 200 352 205 352 205 353 201 353 182 353 202 25 182 25 201 25 201 25 204 25 202 25 187 354 202 354 204 354 204 355 197 355 187 355 206 71 198 71 203 71 198 356 197 356 203 356 197 71 204 71 203 71 203 71 204 71 201 71 201 357 205 357 203 357 205 71 206 71 203 71 193 348 207 348 212 348 212 358 208 358 193 358 192 20 193 20 208 20 208 20 209 20 192 20 188 359 192 359 209 359 209 351 211 351 188 351 210 352 188 352 211 352 211 360 214 360 210 360 183 25 210 25 214 25 214 25 213 25 183 25 207 361 183 361 213 361 213 355 212 355 207 355 209 71 208 71 215 71 208 356 212 356 215 356 212 71 213 71 215 71 215 71 213 71 214 71 214 357 211 357 215 357 211 71 209 71 215 71 216 362 320 363 321 364 134 365 217 366 139 367 156 368 157 368 159 368 324 369 323 370 142 371 322 372 218 372 323 372 235 51 219 51 254 51 219 51 235 51 237 51 233 373 219 373 237 373 220 51 267 51 225 51 225 374 168 374 220 374 221 375 220 375 168 375 222 51 224 51 155 51 155 51 160 51 222 51 247 376 222 376 160 376 168 377 154 377 221 377 154 378 223 378 221 378 154 51 155 51 223 51 229 51 223 51 155 51 155 379 224 379 229 379 252 51 234 51 189 51 189 51 225 51 252 51 225 380 226 380 252 380 226 51 225 51 267 51 251 51 226 51 267 51 267 51 227 51 251 51 228 381 251 381 227 381 227 382 229 382 228 382 229 51 230 51 228 51 229 51 224 51 230 51 189 383 234 383 235 383 254 51 189 51 235 51 231 51 189 51 254 51 254 51 256 51 231 51 147 51 231 51 256 51 256 384 258 384 147 384 160 385 147 385 258 385 258 51 232 51 160 51 160 51 232 51 247 51 247 51 232 51 233 51 244 51 247 51 233 51 237 386 244 386 233 386 235 387 234 387 241 387 241 388 236 388 235 388 237 389 235 389 236 389 236 390 245 390 237 390 239 51 250 51 238 51 238 51 240 51 239 51 243 51 239 51 240 51 240 51 249 51 241 51 241 51 242 51 240 51 240 391 242 391 243 391 246 51 245 51 236 51 236 51 241 51 246 51 248 51 246 51 241 51 241 392 249 392 248 392 244 20 237 20 245 20 245 20 246 20 244 20 247 393 244 393 246 393 246 394 248 394 247 394 222 395 247 395 248 395 248 396 249 396 222 396 224 71 222 71 249 71 249 71 240 71 224 71 230 397 224 397 240 397 240 398 238 398 230 398 228 399 230 399 238 399 238 400 250 400 228 400 251 25 228 25 250 25 250 25 239 25 251 25 226 401 251 401 239 401 239 402 243 402 226 402 252 403 226 403 243 403 243 404 242 404 252 404 234 42 252 42 242 42 242 42 241 42 234 42 232 405 258 405 257 405 257 406 253 406 232 406 233 71 232 71 253 71 253 71 259 71 233 71 219 407 233 407 259 407 259 408 255 408 219 408 254 409 219 409 255 409 255 410 262 410 254 410 256 42 254 42 262 42 262 42 261 42 256 42 258 411 256 411 261 411 261 412 257 412 258 412 259 51 253 51 260 51 253 51 257 51 260 51 257 51 261 51 260 51 260 51 261 51 262 51 262 51 255 51 260 51 255 51 259 51 260 51 229 405 227 405 269 405 269 413 263 413 229 413 223 71 229 71 263 71 263 71 264 71 223 71 221 414 223 414 264 414 264 408 265 408 221 408 220 409 221 409 265 409 265 415 266 415 220 415 267 42 220 42 266 42 266 42 268 42 267 42 227 416 267 416 268 416 268 412 269 412 227 412 264 51 263 51 270 51 263 51 269 51 270 51 269 51 268 51 270 51 270 51 268 51 266 51 266 51 265 51 270 51 265 51 264 51 270 51 271 417 160 417 279 417 305 71 306 71 155 71 155 71 272 71 305 71 300 71 305 71 272 71 306 71 273 71 155 71 273 418 309 418 155 418 160 419 155 419 309 419 309 420 314 420 160 420 314 71 279 71 160 71 160 421 271 421 274 421 274 71 275 71 160 71 162 71 160 71 275 71 275 422 299 422 162 422 278 71 319 71 163 71 319 423 276 423 163 423 272 71 163 71 276 71 276 424 302 424 272 424 272 71 302 71 300 71 287 425 277 425 163 425 163 426 162 426 287 426 285 71 287 71 162 71 162 427 299 427 285 427 280 71 291 71 279 71 291 428 294 428 279 428 279 429 294 429 271 429 163 430 277 430 283 430 163 71 283 71 282 71 278 71 163 71 282 71 282 71 280 71 278 71 280 431 315 431 278 431 279 71 315 71 280 71 281 432 282 432 283 432 280 433 282 433 281 433 286 434 277 434 287 434 283 435 277 435 286 435 284 436 285 436 299 436 287 437 285 437 284 437 288 56 289 56 283 56 283 56 286 56 288 56 286 56 287 56 288 56 281 438 283 438 289 438 289 439 292 439 281 439 292 440 280 440 281 440 290 441 291 441 280 441 294 442 291 442 290 442 290 443 280 443 292 443 292 444 293 444 290 444 293 445 294 445 290 445 296 446 271 446 294 446 274 447 271 447 296 447 295 71 298 71 293 71 293 71 292 71 295 71 288 71 295 71 292 71 292 71 289 71 288 71 296 51 294 51 293 51 293 51 298 51 296 51 298 448 274 448 296 448 297 449 274 449 298 449 298 450 295 450 297 450 295 451 299 451 297 451 284 452 299 452 295 452 295 453 288 453 284 453 288 454 287 454 284 454 297 455 275 455 274 455 299 456 275 456 297 456 303 432 300 432 302 432 305 457 300 458 303 459 301 460 276 460 319 460 302 461 276 461 301 461 318 462 278 462 315 462 319 463 278 463 318 463 311 56 304 56 302 56 302 56 301 56 311 56 301 56 319 56 311 56 303 438 302 438 304 438 304 464 307 464 303 464 307 440 305 440 303 440 308 465 306 465 305 465 273 466 306 467 308 468 308 469 305 469 307 469 307 470 312 470 308 470 312 471 273 471 308 471 310 472 309 472 273 472 314 473 309 473 310 473 317 71 313 71 312 71 312 71 307 71 317 71 311 71 317 71 307 71 307 71 304 71 311 71 310 51 273 51 312 51 312 51 313 51 310 51 313 448 314 448 310 448 316 449 314 449 313 449 313 474 317 474 316 474 317 451 315 451 316 451 318 475 315 475 317 475 317 453 311 453 318 453 311 476 319 476 318 476 316 455 279 455 314 455 315 477 279 478 316 479 323 480 148 481 142 482 195 483 165 483 196 483 177 484 196 484 165 484 323 485 218 486 165 486 177 487 165 487 218 487 216 488 218 489 320 489 324 490 322 491 323 491 322 372 320 372 218 372 323 492 146 493 148 494</p>
        </triangles>
      </mesh>
    </geometry>
  </library_geometries>
  <library_visual_scenes>
    <visual_scene id="Scene" name="Scene">
      <node id="node" name="node" type="NODE">
        <matrix sid="transform">1 0 0 0 0 7.54979e-8 -1 0 0 1 7.54979e-8 0 0 0 0 1</matrix>
        <instance_geometry url="#shape0-mesh" name="node"/>
      </node>
    </visual_scene>
  </library_visual_scenes>
  <scene>
    <instance_visual_scene url="#Scene"/>
  </scene>
</COLLADA>